# xmcd
#
# Track frame offsets:
#	150
#	14543
#	28313
#	47448
#	62720
#	81890
#	107528
#	123415
#	136545
#	149973
#	163215
#	179923
#	194045
#	211048
#	219638
#	232630
#	244473
#	263400
#	276698
#	290578
#
# Disc length: 4089 seconds
#
# Revision: 1
# Processed by: cddbd v1.5.2PL0 Copyright (c) Steve Scherf et al.
# Submitted via: EasyCDDAExtractor 15.3.0.1
#
DISCID=3c0ff714
DTITLE=Miroslav Škoro - Mene Zovu Tambure
DYEAR=1993
DGENRE=Country
TTITLE0=Otvor' Ženo Kapiju
TTITLE1=Slavonijom Polegla Je Magla
TTITLE2=Ja Se Bojim Da Me Ne Voliš
TTITLE3=Kuća Na Kraju Sela
TTITLE4=Heroji Ne Plaču
TTITLE5=Mata
TTITLE6=Ej, Salaši
TTITLE7=Sjeti Se
TTITLE8=Oj, Neretvo, Voda Ladna
TTITLE9=Moja Draga
TTITLE10=Bećarska Tuga
TTITLE11=Moja Juliška
TTITLE12=Sumi, sumi javore
TTITLE13=Neka Grmi, Neka Sijeva
TTITLE14=Momak Curi Govori
TTITLE15=Mozda Pijan Ali Nisam Jako
TTITLE16=Nemoj Svijeću Paliti
TTITLE17=Ljubav Je ...
TTITLE18=Tamburaši Pokraj Dunava
TTITLE19=Ne Dirajte Mi, Ravnicu
EXTD=
EXTT0=
EXTT1=
EXTT2=
EXTT3=
EXTT4=
EXTT5=
EXTT6=
EXTT7=
EXTT8=
EXTT9=
EXTT10=
EXTT11=
EXTT12=
EXTT13=
EXTT14=
EXTT15=
EXTT16=
EXTT17=
EXTT18=
EXTT19=
PLAYORDER=
